<?xml version="1.0" encoding="UTF-8"?>
<svg id="Capa_1" data-name="Capa 1" xmlns="http://www.w3.org/2000/svg" viewBox="0 0 300 300">
  <defs>
    <style>
      .cls-1 {
        fill: #bbe0ff;
        opacity: .72;
      }

      .cls-1, .cls-2 {
        stroke-width: 0px;
      }

      .cls-2 {
        fill: #072b4f;
      }
    </style>
  </defs>
  <path class="cls-2" d="m249.14,23.09c.16.52.64.39,1.01.49,8.02,2.01,13.01,10.12,11.12,18.06-1.96,8.21-9.9,13.35-18.04,11.48-1.51-.35-2.19-.04-2.98,1.16-9.88,14.91-19.8,29.8-29.73,44.68-.7,1.05-.89,1.74-.02,2.95,4.14,5.72,3.9,12.72-.43,18.35-3.94,5.11-10.99,7.06-17.16,4.75-6.32-2.37-10.28-8.45-9.74-15.35.14-1.81-.4-2.57-1.96-3.32-6.09-2.91-12.12-5.95-18.12-9.04-1.13-.58-1.74-.52-2.72.35-4.89,4.34-10.44,5.4-16.51,2.8-1.21-.52-1.94-.56-2.96.48-8.23,8.35-16.53,16.64-24.85,24.91-.87.86-1.08,1.47-.53,2.7,3.03,6.8,1.06,14.32-4.72,18.59-5.89,4.35-13.66,3.98-19.31-1.11-1.09-.98-1.81-.94-2.97-.35-5.79,2.96-11.57,5.94-17.45,8.72-1.89.89-2.53,1.84-2.43,4.02.38,8.1-5.38,14.78-13.31,15.79-7.56.97-14.73-4.11-16.6-11.76-1.53-6.25,1.22-12.87,6.75-16.25,5.73-3.51,13.1-3.06,17.93,1.4,1.46,1.35,2.41,1.27,3.99.44,5.84-3.05,11.74-5.97,17.65-8.87,1.22-.6,1.78-1.09,1.63-2.72-1.09-11.79,10.55-20.12,21.35-15.31,1.33.59,1.98.33,2.9-.6,8.19-8.27,16.42-16.52,24.68-24.72.95-.95,1.17-1.61.59-2.93-2.63-6.04-1.71-11.7,2.68-16.53,4.28-4.71,9.79-6.08,15.81-4.13,6.25,2.03,9.63,6.63,10.47,13.12.04.33.16.69.06.98-1.13,3.38,1.09,4.44,3.58,5.62,5.43,2.56,10.77,5.32,16.12,8.04,1.11.57,1.85.76,2.97-.28,3.88-3.6,8.51-4.96,13.71-3.7,1.34.33,2,.06,2.75-1.08,9.92-14.98,19.89-29.94,29.87-44.88.66-.99.79-1.64.03-2.74-6.37-9.25-2.19-20.68,8.61-23.74.29-.08.54-.3.82-.45,1.82,0,3.64,0,5.45,0Z"/>
  <path class="cls-1" d="m157.81,86.62c0,4.23-3.71,7.87-7.93,7.79-4.14-.08-7.67-3.68-7.68-7.8,0-4.23,3.7-7.86,7.93-7.77,4.18.09,7.68,3.64,7.67,7.78Z"/>
  <path class="cls-1" d="m45.83,158.95c.05-4.29,3.46-7.62,7.78-7.6,4.28.02,7.69,3.45,7.68,7.72,0,4.34-3.6,7.86-7.92,7.76-4.22-.09-7.58-3.6-7.54-7.88Z"/>
  <path class="cls-1" d="m101.84,127.17c4.26.02,7.66,3.46,7.66,7.75,0,4.3-3.37,7.69-7.67,7.71-4.35.03-7.9-3.53-7.83-7.85.07-4.21,3.59-7.63,7.84-7.61Z"/>
  <path class="cls-1" d="m254.18,38.24c.03,4.31-3.32,7.73-7.61,7.78-4.3.05-7.78-3.3-7.86-7.55-.07-4.36,3.42-7.95,7.74-7.95,4.22,0,7.69,3.47,7.72,7.71Z"/>
  <path class="cls-1" d="m198.31,102.97c4.18.05,7.71,3.62,7.7,7.81,0,4.2-3.53,7.74-7.73,7.76-4.34.02-7.84-3.54-7.78-7.91.07-4.23,3.6-7.7,7.8-7.66Z"/>
  <path class="cls-1" d="m168.27,212.71c0,19.57-.04,39.14.06,58.72,0,2.02-.56,2.4-2.43,2.36-5.68-.13-11.37-.1-17.06,0-1.48.02-1.8-.43-1.8-1.84.04-39.59.04-79.18,0-118.76,0-1.5.45-1.81,1.86-1.8,5.83.07,11.67.09,17.5,0,1.6-.03,1.92.45,1.91,1.97-.05,19.79-.03,39.59-.03,59.38Z"/>
  <path class="cls-1" d="m211.75,220.75c0,17-.03,33.99.05,50.99,0,1.76-.48,2.08-2.11,2.05-4.94-.11-9.88-.09-14.81,0-1.29.02-1.56-.37-1.56-1.6.03-34.38.03-68.75,0-103.13,0-1.3.39-1.58,1.61-1.56,5.07.06,10.13.08,15.2,0,1.39-.02,1.67.39,1.66,1.71-.05,17.19-.03,34.38-.03,51.56Z"/>
  <path class="cls-1" d="m260.08,216.45c0,17-.03,33.99.05,50.99,0,1.76-.48,2.08-2.11,2.05-4.94-.11-9.88-.09-14.81,0-1.29.02-1.56-.37-1.56-1.6.03-34.38.03-132.45,0-166.82,0-1.3.39-1.58,1.61-1.56,5.07.06,10.13.08,15.2,0,1.39-.02,1.67.39,1.66,1.71-.05,17.19-.03,98.07-.03,115.26Z"/>
  <path class="cls-1" d="m97.71,231.16c0-13.39.03-26.78-.04-40.17-.01-1.88.24-2.58,2.08-2.52,5.44.17,10.89.1,16.33.03,1.27-.02,1.65.34,1.64,1.85-.04,27.18-.05,54.36,0,81.54,0,1.72-.57,1.9-1.81,1.88-5.51-.06-11.03-.08-16.54.01-1.38.02-1.71-.42-1.71-1.97.05-13.55.03-27.1.03-40.65Z"/>
  <path class="cls-1" d="m49.17,244.66c0-8.25.03-16.5-.03-24.75-.01-1.47.33-1.82,1.51-1.79,4.47.09,8.95.08,13.43,0,1.08-.02,1.3.37,1.3,1.61-.03,16.71-.04,33.42,0,50.12,0,1.39-.34,1.68-1.41,1.66-4.48-.07-8.95-.08-13.43,0-1.11.02-1.4-.35-1.39-1.69.05-8.39.03-16.78.03-25.16Z"/>
  <path class="cls-2" d="m270.68,269.49c-.81-.13-1.67-.15-2.47-.03-2.06.32-2.58-.44-2.57-2.52.08-25.69.05-51.38.05-77.07,0-.91.03-1.83-.11-2.72-.3-1.87-1.46-2.93-3.35-3.03-2-.11-3.34.86-3.78,2.82-.21.95-.19,1.97-.19,2.95,0,25.77-.03,51.55.04,77.32,0,1.89-.48,2.31-2.31,2.27-6.16-.12-12.32-.15-18.47,0h-.67c-1.78-.06-2.24-.74-2.24-2.79.07-50.47.05-100.94.05-151.42,0-9.58.06-19.17-.05-28.75-.02-2.02.6-2.44,2.49-2.41,6.11.12,12.23.15,18.34-.01,2.24-.06,2.87.51,2.86,2.82-.09,27.18-.06,54.36-.04,81.53,0,1.06.02,2.18.32,3.18.51,1.71,1.91,2.53,3.61,2.42,1.68-.1,2.97-1.02,3.33-2.8.16-.8.16-1.64.16-2.46,0-27.92.01-55.84,0-83.76,0-5.78-2.52-8.29-8.3-8.3-7.02-.02-14.05.16-21.06-.06-5.46-.17-9.17,2.16-9.16,9.06.14,58.73.08,117.47.06,176.2,0,2.44,1.07,5.71-.48,7.1-.23.21-.53.35-.86.44h-4.08c-.69-.05-1.37-.07-1.99-.01-.07,0-.14,0-.21.01h-.66c-1.27-.1-1.53-.89-1.52-2.46.07-18.09.04-36.18.04-54.27,0-18.5-.02-37.01.02-55.51,0-2.77-.8-5.1-3.19-6.56-2.7-1.64-5.72-1.48-8.64-.78-1.82.44-2.64,2.01-2.4,3.83.23,1.8,1.34,2.98,3.25,3.2.49.06,1,.09,1.48.02,1.56-.22,2.19.29,2.08,1.98-.15,2.3-.04,4.62-.04,6.94,0,33.62-.03,67.24.06,100.86,0,2.34-.69,2.79-2.84,2.74-6.03-.14-12.06-.16-18.09,0-.02,0-.03,0-.05,0h-.44c-1.83-.04-2.35-.69-2.34-2.8.08-35.44.08-70.88,0-106.32,0-2.51.28-3.76,3.21-3.48,2.19.21,3.61-1.42,3.67-3.47.06-2.04-1.25-3.63-3.41-3.83-6.57-.6-10.94,1.05-10.9,9.22.11,25.35.29,48.59.37,72.81h-.33v36.07c-.14.52-.33.92-.58,1.13-.34.29-.78.5-1.29.66h-6.54c-1.18-.33-1.29-.94-1.29-2.74.08-44.44.06-88.89.06-133.33,0-5.59-2.6-8.2-8.15-8.21-7.19-.01-14.37,0-21.56,0-6.55,0-8.87,2.35-8.87,8.98,0,44.28-.01,88.56.04,132.83,0,1.83-.28,2.4-2.35,2.45-.28,0-.67.01-1.12.02h-2.54c-.27,0-.54-.01-.79-.02-2.39-.08-2.95-.46-2.95-2.88.1-28.17.07-56.34.06-84.51,0-5.81-2.51-8.32-8.26-8.33-7.19,0-14.37,0-21.56,0-6.34,0-8.69,2.32-8.69,8.59,0,26.68,0,53.36-.02,80.05,0,.17,0,.35.02.53v5.53c-.11.21-.25.4-.43.56-.25.21-.6.37-1.02.48h-7.35c-.8-.33-1.04-1.14-1.03-2.65.11-20.16.06-40.31.06-60.47,0-6.05-2.35-8.42-8.32-8.43-7.02-.01-14.04,0-21.07,0-6.91,0-9.07,2.13-9.07,8.95,0,19.25,0,38.5,0,57.74q0,4.55-4.43,4.81c-.16,0-.33,0-.49.02-2.05.35-3.28,1.48-3.36,3.63-.07,2.03,1.35,3.55,3.48,3.76.74.07,1.49.03,2.23.03,12.68,0,25.37,0,38.05,0h0s194.56,0,194.56,0h0c1.27,0,2.55,0,3.82,0,.83,0,1.67.08,2.47-.05,2.05-.33,3.3-1.52,3.31-3.66,0-2.14-1.24-3.34-3.28-3.68Zm-130.5-136.87c6.52.08,13.05.11,19.57-.01,1.79-.03,2.14.51,2.14,2.2-.06,22.13-.04,44.26-.04,66.4,0,21.88-.04,43.77.06,65.65.01,2.26-.62,2.68-2.72,2.63-6.36-.14-12.72-.11-19.08-.01-1.66.03-2.01-.48-2.01-2.06.04-44.27.04-88.53,0-132.8,0-1.68.51-2.03,2.08-2.01Zm-47.78,48.52c6.43.17,12.88.11,19.31.03,1.5-.02,1.95.36,1.95,1.91-.05,28.15-.05,56.3,0,84.45,0,1.78-.67,1.97-2.15,1.95-6.52-.06-13.04-.09-19.56.01-1.63.02-2.02-.44-2.02-2.04.06-14.03.04-28.07.04-42.1s.04-27.74-.05-41.6c-.01-1.94.28-2.67,2.47-2.61Zm-29.09,88.35c-6.52-.08-13.05-.09-19.57,0-1.62.02-2.04-.42-2.03-2.03.08-10.08.04-20.15.04-30.23s.05-19.82-.04-29.73c-.02-1.77.49-2.18,2.2-2.15,6.52.1,13.05.1,19.57,0,1.57-.02,1.89.45,1.89,1.94-.05,20.07-.06,40.14,0,60.21,0,1.67-.49,2.02-2.06,2Z"/>
</svg>